<svg width="1837" height="1837" viewBox="0 0 1837 1837" fill="none" xmlns="http://www.w3.org/2000/svg">
<circle cx="918.5" cy="918.5" r="918.5" fill="#D9D9D9"/>
<path d="M873.91 671.243V925.929C873.91 979.653 843.555 1036.36 752 1036.36C669.403 1036.36 629.586 993.586 629.586 925.929V671.234H704.726V920.948C704.726 965.223 723.634 982.624 751.005 982.624C783.839 982.624 798.771 960.74 798.771 920.948V671.234H873.91M996.117 1036.35C903.067 1036.35 885.652 981.636 889.633 919.459H964.767C964.767 953.788 966.265 982.63 1007.56 982.63C1032.94 982.63 1045.37 966.211 1045.37 941.844C1045.37 877.176 894.109 873.193 894.109 766.244C894.109 710.031 920.977 665.268 1012.53 665.268C1085.69 665.268 1122.01 698.102 1117.04 773.217H1043.88C1043.88 746.339 1039.41 718.989 1009.04 718.989C984.666 718.989 970.238 732.425 970.238 757.286C970.238 825.443 1121.51 819.471 1121.51 932.389C1121.51 1025.41 1053.35 1036.38 996.129 1036.38M1501.25 1036.38C1408.2 1036.38 1390.79 981.657 1394.78 919.48H1469.9C1469.9 953.809 1471.41 982.651 1512.7 982.651C1538.09 982.651 1550.53 966.232 1550.53 941.865C1550.53 877.197 1399.25 873.214 1399.25 766.265C1399.25 710.052 1426.12 665.289 1517.68 665.289C1590.82 665.289 1627.14 698.123 1622.17 773.238H1549.03C1549.03 746.36 1544.55 719.01 1514.2 719.01C1489.8 719.01 1475.39 732.446 1475.39 757.307C1475.39 825.464 1626.64 819.492 1626.64 932.41C1626.64 1025.43 1558.48 1036.4 1501.26 1036.4M1261.91 896.578H1306.13V975.828L1302.45 977.188C1291.02 981.177 1277.58 984.157 1265.14 984.157C1222.34 984.157 1211.39 964.256 1211.39 851.847C1211.39 782.196 1211.39 719.025 1258.17 719.025C1294.56 719.025 1302.24 743.578 1302.91 773.256H1377.75C1378.34 703.559 1333.44 665.307 1262.64 665.307C1139.75 665.307 1135.25 757.325 1135.25 847.864C1135.25 984.157 1150.05 1037.05 1276.42 1037.05C1305.74 1037.05 1352.4 1030.43 1373.95 1024.53C1375.26 1024.19 1377.59 1022.74 1377.59 1020.89V842.389H1261.91V896.569" fill="#007150"/>
<path d="M316.013 791.507L317.268 792.714C352.477 822.197 390.464 819.328 419.408 800.094C437.648 787.967 520.173 733.105 566.817 702.103V671.123H219.191V752.914C240.376 749.248 274.53 752.848 316.013 791.507ZM446.788 927.555L405.728 888.195C399.958 882.944 395.03 879.09 393.963 878.272C360.396 854.711 329.112 861.872 315.621 866.885C311.54 868.515 307.636 870.74 304.877 872.483L219.185 929.777V1033.6H566.811V958.877C559.171 963.729 512.074 989.186 446.782 927.549M312.93 800.795C311.076 799.063 309.023 797.219 307.193 795.709C266.142 763.962 227.361 779.509 219.182 783.382V819.115L239.297 805.569C239.297 805.569 270.294 782.585 318.53 806.153L312.93 800.795ZM360.95 846.945C359.143 845.345 357.313 843.701 355.488 841.961C319.066 811.157 283.86 818.989 269.26 824.398C265.12 826.057 261.171 828.301 258.388 830.05L219.182 856.268V893.071L284.759 848.9C284.759 848.9 315.402 826.171 363.152 849.062L360.95 846.945ZM566.841 885.475C553.17 894.694 539.269 904.053 533.741 907.761C521.374 916.042 492.762 936.555 445.129 913.796L450.728 919.178C452.822 921.065 455.384 923.257 458.161 925.399C492.37 950.946 528.927 947.274 556.337 929.121C560.133 926.612 563.599 924.302 566.844 922.131V885.49M566.844 811.783C536.824 831.964 496.3 859.203 488.694 864.304C476.329 872.585 447.289 893.379 400.674 871.111L406.079 876.29C406.693 876.859 407.304 877.413 407.912 878C444.101 908.609 483.948 903.927 511.277 885.676C526.695 875.385 548.611 860.578 566.847 848.217L566.817 811.783M566.817 738.463C523.519 767.46 452.484 815.039 443.888 820.804C431.419 829.157 402.022 850.263 356.001 828.292L361.585 833.671C364.914 836.678 369.39 840.436 374.144 843.539C405.998 863.881 439.334 860.284 466.472 842.176C485.982 829.145 533.966 797.257 566.817 775.433V738.463Z" fill="#007150"/>
<path d="M236.898 1140.53C236.158 1143.41 235.696 1146.18 236.146 1148.18C236.73 1150.22 238.39 1151.21 241.907 1151.21C245.415 1151.21 248.921 1148.94 249.822 1144.67C252.681 1131.25 220.902 1134.25 225.201 1114.05C228.113 1100.37 242.554 1096.22 253.984 1096.22C266.034 1096.22 275.726 1101.99 271.813 1115.67H254.487C255.422 1111.28 255.476 1108.64 254.466 1107.52C253.573 1106.38 252.12 1106.13 250.233 1106.13C246.347 1106.13 243.678 1108.65 242.767 1112.91C240.628 1122.95 271.882 1122.46 267.547 1142.78C265.207 1153.83 254.4 1162.12 239.714 1162.12C224.264 1162.12 214.799 1158.21 219.569 1140.53H236.898ZM312.649 1120.01C314.647 1110.61 312.927 1107.47 307.406 1107.47C299.877 1107.47 297.839 1114.12 295.032 1127.29C290.919 1146.63 291.665 1150.77 298.199 1150.77C303.723 1150.77 307.427 1145.75 309.185 1137.47H326.889C323.239 1154.67 312.367 1162.08 295.784 1162.08C272.934 1162.08 272.88 1148.14 277.107 1128.32C280.789 1110.99 286.452 1096.18 309.808 1096.18C326.128 1096.18 333.875 1103.47 330.349 1120.03H312.649M367.742 1073.04L364.779 1086.97H347.076L350.039 1073.04H367.742ZM349.068 1160.83H331.365L344.85 1097.44H362.553L349.068 1160.81V1160.83ZM1196.25 1073.04L1193.28 1086.97H1175.57L1178.53 1073.04H1196.24M1177.58 1160.83H1159.88L1173.35 1097.44H1191.06L1177.58 1160.81L1177.58 1160.83ZM401.522 1122.04C402.834 1115.9 404.949 1107.11 396.537 1107.11C388.366 1107.11 386.47 1116.66 385.323 1122.04H401.522ZM383.213 1131.95C381.616 1139.49 379.465 1150.78 387.243 1150.78C393.526 1150.78 396.066 1144.75 397.184 1139.48H415.136C413.416 1146.39 409.959 1152.04 404.862 1155.92C399.889 1159.81 393.13 1162.08 384.846 1162.08C361.987 1162.08 361.942 1148.14 366.154 1128.31C369.836 1110.99 375.502 1096.18 398.855 1096.18C422.719 1096.18 422.074 1111.61 417.122 1131.95L383.213 1131.95ZM450.509 1103.86H450.758C455.477 1098.21 460.675 1096.2 467.338 1096.2C475.751 1096.2 482.087 1101.22 480.221 1110L469.411 1160.85H451.708L460.992 1117.17C462.194 1111.52 462.131 1107.13 456.478 1107.13C450.827 1107.13 448.88 1111.53 447.681 1117.17L438.4 1160.85H420.696L434.178 1097.46H451.87L450.515 1103.87M520.817 1120.04C522.815 1110.64 521.095 1107.5 515.571 1107.5C508.045 1107.5 506.001 1114.15 503.194 1127.32C499.081 1146.66 499.833 1150.8 506.364 1150.8C511.886 1150.8 515.589 1145.78 517.353 1137.5H535.057C531.396 1154.7 520.538 1162.11 503.952 1162.11C481.102 1162.11 481.051 1148.17 485.272 1128.35C488.954 1111.02 494.608 1096.21 517.964 1096.21C534.293 1096.21 542.043 1103.5 538.517 1120.06H520.817M579.568 1122.07C580.868 1115.93 582.999 1107.14 574.583 1107.14C566.419 1107.14 564.516 1116.69 563.369 1122.07H579.547M561.242 1131.98C559.624 1139.52 557.482 1150.81 565.268 1150.81C571.545 1150.81 574.077 1144.78 575.203 1139.51H593.155C591.435 1146.42 587.978 1152.07 582.873 1155.95C577.911 1159.84 571.152 1162.11 562.86 1162.11C540.009 1162.11 539.949 1148.17 544.173 1128.34C547.862 1111.02 553.521 1096.21 576.875 1096.21C600.726 1096.21 600.085 1111.64 595.129 1131.98H561.245L561.242 1131.98ZM669.457 1084.36C662.411 1083.86 660.316 1086.63 658.95 1093.04L657.692 1097.47H665.991L663.669 1108.39H655.376L644.222 1160.87H626.519L637.67 1108.39H629.766L632.085 1097.47H640.12C643.68 1081.62 646.864 1072.82 665.634 1072.82C667.77 1072.82 669.757 1072.94 671.866 1073.07L669.499 1084.36M698.141 1127.34C700.948 1114.16 701.73 1107.51 694.195 1107.51C686.669 1107.51 684.62 1114.16 681.822 1127.34C677.708 1146.67 678.46 1150.81 684.988 1150.81C691.49 1150.81 694.006 1146.68 698.141 1127.33M663.897 1128.35C667.579 1111.03 673.235 1096.22 696.589 1096.22C719.943 1096.22 719.317 1111.03 715.629 1128.35C711.407 1148.17 705.433 1162.11 682.577 1162.11C659.717 1162.11 659.657 1148.19 663.882 1128.36L663.897 1128.35ZM747.365 1097.47L745.636 1105.63H745.882C750.697 1098.34 757.177 1096.21 764.344 1096.21L760.982 1112.02C745.616 1111.02 743.443 1120.06 742.113 1126.34L734.779 1160.85H717.076L730.546 1097.46H747.383M800.802 1141.13C799.843 1145.65 799.412 1151.17 805.191 1151.17C815.614 1151.17 816.98 1137.12 818.436 1130.21C809.598 1130.6 803.217 1129.85 800.82 1141.14M831.798 1149.05C830.957 1152.96 830.615 1156.97 830.163 1160.85H813.712L814.745 1152.44H814.5C809.343 1158.97 803.522 1162.11 795.855 1162.11C783.557 1162.11 780.992 1152.95 783.329 1141.9C787.787 1120.94 804.175 1120.05 820.569 1120.32L821.609 1115.41C822.763 1110.01 822.837 1106.12 816.429 1106.12C810.275 1106.12 808.792 1110.76 807.717 1115.79H790.388C792.021 1108.13 795.451 1103.24 800.209 1100.36C804.861 1097.33 810.877 1096.2 817.666 1096.2C840.136 1096.2 840.966 1105.87 838.515 1117.42L831.774 1149.08L831.798 1149.05ZM901.875 1120.06C903.873 1110.65 902.154 1107.51 896.635 1107.51C889.1 1107.51 887.06 1114.16 884.255 1127.34C880.142 1146.67 880.894 1150.81 887.428 1150.81C892.947 1150.81 896.656 1145.79 898.418 1137.52H916.121C912.463 1154.71 901.596 1162.12 885.016 1162.12C862.166 1162.12 862.121 1148.18 866.33 1128.36C870.021 1111.03 875.681 1096.22 899.035 1096.22C915.354 1096.22 923.105 1103.51 919.578 1120.08H901.875M999.095 1141.16C998.13 1145.68 997.708 1151.21 1003.48 1151.21C1013.91 1151.21 1015.28 1137.15 1016.73 1130.24C1007.86 1130.63 1001.48 1129.88 999.08 1141.17M1030.06 1149.08C1029.22 1152.99 1028.87 1157 1028.42 1160.88H1011.97L1013 1152.47H1012.76C1007.61 1159 1001.8 1162.14 994.107 1162.14C981.811 1162.14 979.244 1152.98 981.584 1141.93C986.039 1120.97 1002.43 1120.09 1018.83 1120.35L1019.88 1115.45C1021.01 1110.04 1021.09 1106.15 1014.69 1106.15C1008.53 1106.15 1007.05 1110.79 1005.97 1115.82H988.654C990.281 1108.16 993.717 1103.27 998.469 1100.39C1003.15 1097.37 1009.14 1096.24 1015.93 1096.24C1038.4 1096.24 1039.23 1105.91 1036.77 1117.45L1030.06 1149.11L1030.06 1149.08ZM1068.92 1103.92H1069.16C1073.89 1098.27 1079.08 1096.26 1085.73 1096.26C1094.14 1096.26 1100.49 1101.28 1098.61 1110.06L1087.8 1160.9H1070.11L1079.4 1117.23C1080.59 1111.57 1080.53 1107.18 1074.88 1107.18C1069.22 1107.18 1067.29 1111.58 1066.09 1117.23L1056.79 1160.9H1039.07L1052.57 1097.52H1070.28L1068.93 1103.92M1124.75 1149.09C1131.16 1149.09 1133.44 1142.44 1136.29 1129.01C1139.25 1115.08 1140.31 1107.18 1133.77 1107.18C1127.12 1107.18 1125 1111.82 1120.89 1131.15C1119.63 1137.05 1116.21 1149.09 1124.75 1149.09ZM1160.7 1097.52L1146.66 1163.54C1145.73 1167.93 1142.29 1185.25 1117.93 1185.25C1104.75 1185.25 1094.15 1181.87 1097.06 1166.43H1114.4C1113.84 1169.07 1113.73 1171.33 1114.54 1172.83C1115.33 1174.47 1117.15 1175.35 1119.91 1175.35C1124.32 1175.35 1127.32 1171.19 1128.69 1164.8L1131.28 1152.64H1131.02C1127.34 1157.52 1121.79 1160.03 1116.02 1160.03C1096.55 1160.03 1101.2 1142.22 1104.25 1127.9C1107.22 1113.97 1111.23 1096.26 1129.69 1096.26C1135.97 1096.26 1140.78 1099.02 1142.03 1104.93H1142.29L1143.86 1097.52H1160.68V1097.52H1160.77H1160.7ZM1219.96 1103.92H1220.24C1224.95 1098.28 1230.14 1096.27 1236.79 1096.27C1245.21 1096.27 1251.54 1101.29 1249.68 1110.06L1238.87 1160.91H1221.16L1230.46 1117.23C1231.65 1111.58 1231.59 1107.19 1225.94 1107.19C1220.28 1107.19 1218.35 1111.59 1217.15 1117.23L1207.85 1160.91H1190.15L1203.63 1097.52H1221.34L1219.99 1103.93M1275.8 1149.1C1282.21 1149.1 1284.49 1142.45 1287.35 1129.02C1290.32 1115.09 1291.38 1107.19 1284.84 1107.19C1278.19 1107.19 1276.07 1111.83 1271.96 1131.16C1270.73 1137.06 1267.29 1149.1 1275.82 1149.1M1311.78 1097.52L1297.73 1163.55C1296.8 1167.94 1293.38 1185.26 1268.99 1185.26C1255.82 1185.26 1245.23 1181.88 1248.15 1166.44H1265.48C1264.91 1169.08 1264.8 1171.34 1265.61 1172.84C1266.4 1174.48 1268.23 1175.36 1270.98 1175.36C1275.38 1175.36 1278.39 1171.2 1279.75 1164.81L1282.34 1152.64H1282.1C1278.42 1157.53 1272.85 1160.04 1267.09 1160.04C1247.62 1160.04 1252.29 1142.22 1255.32 1127.91C1258.29 1113.98 1262.3 1096.27 1280.77 1096.27C1287.05 1096.27 1291.84 1099.03 1293.11 1104.94H1293.36L1294.94 1097.53H1311.76V1097.52H1311.82H1311.78ZM1339.43 1097.52H1357.01L1355.57 1145.22H1355.8L1376.91 1097.52H1395.72L1395.96 1145.22H1396.21L1415.49 1097.52H1432.47L1402.38 1160.91H1383.82L1382 1118.87H1381.76L1360.54 1160.91H1341.72L1339.38 1097.54M1463.09 1127.4C1465.89 1114.22 1466.67 1107.58 1459.15 1107.58C1451.6 1107.58 1449.56 1114.22 1446.77 1127.4C1442.66 1146.73 1443.41 1150.87 1449.94 1150.87C1456.44 1150.87 1458.96 1146.74 1463.06 1127.39M1428.82 1128.41C1432.49 1111.09 1438.15 1096.28 1461.51 1096.28C1484.87 1096.28 1484.24 1111.09 1480.55 1128.41C1476.32 1148.24 1470.36 1162.18 1447.51 1162.18C1424.66 1162.18 1424.62 1148.25 1428.84 1128.42L1428.82 1128.41ZM1513.28 1097.53L1511.53 1105.69H1511.79C1516.61 1098.41 1523.09 1096.28 1530.25 1096.28L1526.88 1112.09C1511.53 1111.08 1509.35 1120.12 1508.02 1126.4L1500.68 1160.91H1482.99L1496.46 1097.52H1513.26M966.792 1096.27C960.144 1096.27 954.943 1098.28 950.224 1103.92H949.967L956.522 1073.12H938.816L920.147 1160.92H937.854L947.15 1117.23C948.349 1111.59 950.287 1107.19 955.944 1107.19C961.6 1107.19 961.654 1111.59 960.468 1117.23L951.174 1160.92H968.871L979.672 1110.07C981.53 1101.3 975.208 1096.3 966.789 1096.3M1542.8 1073.14L1524.13 1160.94H1541.84L1560.51 1073.14H1542.8M1590.14 1128.67C1586.75 1144.62 1584.21 1151.27 1578.18 1151.27C1571.78 1151.27 1572.06 1144.62 1575.45 1128.67C1578.14 1116 1579.88 1107.21 1587.55 1107.21C1594.83 1107.21 1592.82 1115.99 1590.12 1128.65M1601.96 1073.13L1595.49 1103.56H1595.24C1592.74 1098.15 1588.76 1096.27 1582.36 1096.27C1564.52 1096.27 1560.82 1115.98 1558.1 1128.78C1555.33 1141.83 1550.37 1162.17 1568.71 1162.17C1575.5 1162.17 1580.84 1160.02 1585.41 1153.87H1585.67L1584.16 1160.91H1600.99L1619.66 1073.11H1601.95V1073.08L1601.96 1073.13Z" fill="#007150"/>
</svg>
