<svg width="519" height="150" viewBox="0 0 519 150" fill="none" xmlns="http://www.w3.org/2000/svg">
<path fill-rule="evenodd" clip-rule="evenodd" d="M426.06 134V1.48931e-05H476.06C532.06 4.84026e-05 532.06 134.5 478.06 134.5L459.56 134H426.06ZM457.56 106.5V28.5H473.56C492.06 28.5 493.06 106.5 475.56 106.5H457.56Z" fill="#D1C0B4"/>
<path d="M330.06 135H296.06V1H328.06L370.56 70.5L370.06 1H398.56V135H387.56H370.56L328.06 70.5L330.06 135Z" fill="#D1C0B4"/>
<path d="M190.56 12C241.446 50.63 256.06 79 280.56 127C263.159 142.957 245.06 138.5 202.06 146C210.693 126.906 218.041 116.935 213.56 94C212.147 82.8903 202.06 76 195.06 64.5C188.06 53 186.039 31.423 184.56 9C188.033 9.96483 189.258 10.6379 190.56 12Z" fill="#D1C0B4"/>
<path d="M93.5599 130.5C96.6667 128.995 162.379 49.8699 178.56 13C179.56 11.5 179.799 9.81233 184.56 9M184.56 9C188.033 9.96483 189.258 10.6379 190.56 12C241.446 50.63 256.06 79 280.56 127C263.159 142.957 245.06 138.5 202.06 146C210.693 126.906 218.041 116.935 213.56 94C212.148 82.8903 202.06 76 195.06 64.5C188.06 53 186.039 31.423 184.56 9Z" stroke="#D1C0B4" stroke-width="6"/>
<path d="M58.5 109.5H14.5599L0 134.5H62.5C109 134.5 105.5 54.5 62.5 54.5L48 54.5C32.5001 54.5 46.5001 27 62 27H102.06L112.5 2H54C13.5001 2.00001 -9.99994 82 32 82H58.5C75.0001 82 74.0001 109.5 58.5 109.5Z" fill="#D1C0B4"/>
</svg>
